<svg id="Layer_1" data-name="Layer 1" xmlns="http://www.w3.org/2000/svg" viewBox="0 0 200 200"><defs><style>.cls-1{fill:#848689;}</style></defs><path class="cls-1" d="M88.2,27.33A14.77,14.77,0,0,0,75,43.49,14.84,14.84,0,0,0,89.7,56.88q.66,0,1.35-.06a14.75,14.75,0,0,0,13.39-16.16,14.59,14.59,0,0,0-5.24-10A14.84,14.84,0,0,0,88.2,27.33ZM85,47.83a7.49,7.49,0,0,1-2.71-5.16,7.57,7.57,0,0,1,6.68-8.07c.24,0,.49,0,.73,0a7.5,7.5,0,0,1,7.44,6.85,7.5,7.5,0,0,1-6.73,8.11A7.4,7.4,0,0,1,85,47.83Z"/><path class="cls-1" d="M158.31,87a45.15,45.15,0,1,0-29.9,79c.92,0,1.84,0,2.76-.08a45.2,45.2,0,0,0,42.35-47.56A44.72,44.72,0,0,0,158.31,87Zm-25.25,71.37a37.77,37.77,0,1,1-8.25-75.09c1.23-.11,2.45-.17,3.66-.17a37.77,37.77,0,0,1,4.59,75.26Z"/><path class="cls-1" d="M53.72,46.53l2.17.76c1.29.45,2.58.91,3.89,1.32A1.55,1.55,0,0,1,61,50.05l.16,1.13a25.34,25.34,0,0,1,.31,2.73A2.21,2.21,0,0,1,61.08,55c-.63,1-1.3,1.87-2,2.8-.47.65-.94,1.31-1.4,2A4.22,4.22,0,0,0,57,63a3.45,3.45,0,0,0,1.45,2.25,3.57,3.57,0,0,0,2,.63,4.21,4.21,0,0,0,3.39-1.92l1.21-1.71c.89-1.24,1.78-2.49,2.61-3.78a5.43,5.43,0,0,0,1.15-3.16,48.92,48.92,0,0,0-1.13-8.42c-.6-2.38-2.47-4.18-5.39-5.18L60,40.87c-1.3-.45-2.59-.9-4-1.43.74-3.06,1.29-5.55,1.72-7.83a2,2,0,0,0,0-.24h.33c2,.21,4.07.41,6.1.59,3.69.31,6.54-.94,8.45-3.71a34.55,34.55,0,0,0,3.06-5.33A8,8,0,0,0,76.22,19c-.22-1.83-.6-3.66-1-5.43l-.08-1.27c2.5-.75,5-1.52,7.5-2.34.16-.06.25-.07.26-.08a1,1,0,0,1,.15.28c.87,2,1.79,4,2.73,5.95a8.61,8.61,0,0,0,7.51,5.12,26.11,26.11,0,0,0,5.79-.07,9.74,9.74,0,0,0,4.07-1.88c1.31-1,2.5-2,3.75-3.15l1-.85.83.75c1.79,1.62,3.54,3.2,5.25,4.82V21l-.34.52a24.3,24.3,0,0,1-2.41,3.36,7.74,7.74,0,0,0-1.6,7.9c.62,2.09,1.43,4.33,2.55,7.08a5.6,5.6,0,0,0,3.69,3.32c1.15.36,2.28.76,3.42,1.16,1,.33,1.9.67,2.86,1a4.16,4.16,0,0,0,3.23-.16,3.44,3.44,0,0,0,1.72-2.08c.65-2-.41-3.94-2.62-4.72l-1.68-.58c-1.23-.42-2.46-.84-3.66-1.32a2.34,2.34,0,0,1-.58-.57,2.94,2.94,0,0,0-.32-.34h0c-2-5.07-2-5.07,1.22-9.45,1.61-2.15,3-4.79,1.54-8a8.33,8.33,0,0,0-1.88-2.51c-2.15-2-4.35-4-6.53-5.92a6.74,6.74,0,0,0-9.36,0l-1,.83c-1,.86-2.09,1.75-3.07,2.72a3,3,0,0,1-2.46.94c-.51,0-1,0-1.56,0A2.79,2.79,0,0,1,92,12a43.79,43.79,0,0,0-2.13-4.72l-.41-.82a6.77,6.77,0,0,0-8.64-3.59c-2.78.91-5.56,1.79-8.35,2.67a6.89,6.89,0,0,0-4.73,8.15l.22,1c.35,1.6.7,3.2,1,4.81a3.17,3.17,0,0,1-.14,1.07l-.08.34a2.82,2.82,0,0,1-.29.51l-.25.4c-1.85,3-1.85,3-4.75,2.67l-.63-.06c-.92-.1-1.84-.18-2.76-.26L58.13,24a6.73,6.73,0,0,0-7.36,5.28c-.66,2.9-1.29,5.8-1.92,8.71A6.93,6.93,0,0,0,53.72,46.53Z"/><path class="cls-1" d="M199.45,112.42a6.6,6.6,0,0,0-6.19-6l-1.82-.15c-1.39-.12-2.78-.24-4.17-.32-.47,0-.69-.13-.88-.75-.52-1.75-1-3.51-1.63-5.24-.17-.49-.12-.65.27-1,1-.76,1.94-1.55,2.9-2.35l1.24-1c3.27-2.69,3.86-6.26,1.63-9.78-1.62-2.55-3.26-5.1-5-7.6a6.45,6.45,0,0,0-8-2.44c-2,.81-3.84,1.75-5.59,2.64-.76.38-1,.3-1.45-.14-1.31-1.33-2.75-2.58-4-3.64a.79.79,0,0,1-.26-1.11c.71-1.79,1.46-3.7,2.1-5.66a6.71,6.71,0,0,0-3.43-8.39l-7.68-4a6.83,6.83,0,0,0-9.41,2.3c-.42.59-.82,1.19-1.22,1.8-.65,1-1.29,1.94-2,2.86a1.21,1.21,0,0,1-.83.34c-1.08-.16-2.14-.41-3.21-.65-.73-.17-1.47-.34-2.2-.49-.55-.1-.81-.28-.91-1-.12-.93-.27-1.86-.42-2.79-.11-.74-.23-1.48-.34-2.22a6.93,6.93,0,0,0-7.57-6.29l-4.5.21-3.87.17c-4.29.21-6.71,2.6-7,6.91,0,.67-.11,1.34-.17,2-.09,1-.18,2-.22,3a1.13,1.13,0,0,1-1,1.25c-1.72.48-3.42,1-5.12,1.59-.39.13-.61.11-1-.36-1.2-1.5-2.41-3-3.66-4.45a6.69,6.69,0,0,0-9.15-1.39c-2.57,1.59-5.1,3.23-7.64,4.88A6.82,6.82,0,0,0,83.6,72l.61,1.29c.62,1.31,1.23,2.61,1.89,3.89a.85.85,0,0,1-.2,1.23c-1.24,1.29-2.43,2.63-3.61,4a.86.86,0,0,1-1.15.26c-1.74-.68-3.49-1.35-5.26-2-3.84-1.32-7-.06-8.88,3.57L66.07,86c-1,1.93-2,3.86-3,5.81-1.81,3.66-.9,7.07,2.49,9.37l1.26.86c1,.73,2.1,1.45,3.19,2.13a.77.77,0,0,1,.44,1l-.2,1c-.31,1.55-.64,3.14-1.07,4.65a1.28,1.28,0,0,1-.6.52c-1.47.34-3,.58-4.46.83l-1.36.22a6.78,6.78,0,0,0-5.85,6.95c.09,3.14.27,6.37.51,9.62a6.58,6.58,0,0,0,6.49,6.28l2.3.17c1.13.1,2.27.18,3.4.26.51,0,.63.16.75.56.21.68.44,1.36.67,2,.38,1.16.76,2.31,1.06,3.49a1.36,1.36,0,0,1-.25.83c-1,.91-2,1.74-3,2.57l-1.41,1.15a6.71,6.71,0,0,0-1.57,9c1.47,2.42,3.08,5,5.09,8,1.53,2.31,3.85,3.22,7.3,2.86l5.4-2.45c.4-.19.8-.37,1.18-.59s.8-.31,1.39.29c1.32,1.34,2.72,2.56,3.79,3.48a.94.94,0,0,1,.29,1.33c-.42,1.06-.81,2.12-1.2,3.19-.24.64-.48,1.29-.73,1.93a6.89,6.89,0,0,0,3.22,8.74q4.13,2.19,8.3,4.28a6.79,6.79,0,0,0,8.77-2.37c1.09-1.58,2.18-3.16,3.22-4.78.33-.52.57-.57,1.05-.45,1.82.43,3.65.82,5.48,1.21.42.08.65.25.75.93l.35,2.24c.16,1,.32,2,.46,3a6.76,6.76,0,0,0,7,6.1h.42c1.14-.05,2.28-.08,3.42-.12,1.84-.06,3.67-.12,5.51-.24a6.83,6.83,0,0,0,6.62-6.68l0-.6c.1-1.49.2-3,.24-4.47,0-.94.32-1.3,1.29-1.53a37.35,37.35,0,0,0,4.81-1.53c.51-.19.73-.17,1.16.36q1.92,2.4,3.93,4.74a6.18,6.18,0,0,0,8,1.54c3.16-1.82,6.23-3.78,9.14-5.83,2.48-1.74,3.22-5.25,1.77-8.35l-.19-.41c-.7-1.48-1.39-3-2.17-4.42a1.23,1.23,0,0,1,.27-1.78c1-1,2-2.05,2.89-3.12l.48-.55a.89.89,0,0,1,1.23-.32c1.3.53,2.61,1,3.93,1.49l1.46.53a6.67,6.67,0,0,0,8.42-3.06c1.57-2.86,3.08-5.78,4.48-8.67a6.56,6.56,0,0,0-2.09-8.35c-1.71-1.26-3.46-2.42-5.11-3.48a.81.81,0,0,1-.44-1.07c.41-1.82.82-3.65,1.21-5.47.1-.45.23-.61.83-.7,2.08-.3,4.23-.62,6.33-1.1a6.58,6.58,0,0,0,5.12-6.49C199.83,119,199.68,115.63,199.45,112.42Zm-18.84,16.27c-.5,1.84-.9,3.68-1.34,5.89-.84,4.15.22,6.7,3.79,9.07l1.54,1.06c.8.57,1.6,1.13,2.43,1.64a1.61,1.61,0,0,0,.19.13,1.35,1.35,0,0,1-.13.29c-1.24,2.32-2.47,4.64-3.63,7a1.14,1.14,0,0,0-.08.16l-.24-.08-.65-.26c-1.63-.63-3.32-1.28-5-1.82a7.41,7.41,0,0,0-7.85,2c-1.66,1.67-3.18,3.34-4.54,5a7.36,7.36,0,0,0-1.21,8.25l.48,1c.67,1.44,1.34,2.88,2.06,4.28.1.19.1.27,0,.22-2.26,1.41-4.51,2.84-6.73,4.31a2,2,0,0,1-.27.16,1.19,1.19,0,0,1-.27-.27c-.56-.75-1.17-1.46-1.77-2.18s-1.09-1.28-1.6-1.94a7.29,7.29,0,0,0-8.17-2.63,64.55,64.55,0,0,0-7,2.36,6.9,6.9,0,0,0-4.5,6.11q-.3,2.94-.44,5.89c0,.11,0,.19,0,.22l-.21,0c-2.63.09-5.25.2-7.87.38h-.29a1.61,1.61,0,0,1-.06-.28c-.26-1.81-.57-3.62-.89-5.42a7.51,7.51,0,0,0-5.81-6.32c-2.21-.58-4.42-1.06-6.57-1.43a9.21,9.21,0,0,0-1.62-.15,7.38,7.38,0,0,0-6.3,3.45l-3.26,4.73-1.46-.75c-2-1-4-2.05-6-2.89a1.3,1.3,0,0,1,.1-.34l.15-.38c.69-1.79,1.38-3.58,2-5.4a7.12,7.12,0,0,0-1.88-7.62c-1.6-1.62-3.37-3.24-5.27-4.82a7.27,7.27,0,0,0-8.14-1.1c-1.78.83-3.56,1.66-5.51,2.51-1.42-2.26-2.83-4.52-4.3-6.75-.07-.09-.1-.16-.12-.18l.17-.15.36-.29c1.4-1.11,2.85-2.26,4.2-3.5a7.41,7.41,0,0,0,2.26-8c-.45-1.46-.92-2.91-1.4-4.36l-.56-1.73a7.56,7.56,0,0,0-7-5.41l-2-.15c-1.1-.08-2.2-.17-3.31-.22l-.3,0a1.84,1.84,0,0,1,0-.27c-.06-2.58-.19-5.17-.35-7.74a3.34,3.34,0,0,1,0-.35,1,1,0,0,1,.31-.07c1.39-.17,2.77-.43,4.14-.69l1.3-.24a7.6,7.6,0,0,0,6.36-6.13l.45-2.12c.26-1.28.52-2.56.81-3.83a7.42,7.42,0,0,0-3.16-8.1c-1.37-1-2.85-2-4.68-3.18l-.17-.12.09-.19c1.26-2.35,2.49-4.73,3.64-7.24a.9.9,0,0,1,.28.08c1,.39,2,.75,3,1.11l2,.74a7.81,7.81,0,0,0,9-2.22C89,86,90.27,84.55,91.56,83.15a7.72,7.72,0,0,0,1.31-8.87c-.35-.73-.7-1.45-1-2.18-.45-1-.91-1.92-1.36-3,2.3-1.43,4.59-2.89,6.84-4.4l.13-.08a1.07,1.07,0,0,1,.16.18c.68.89,1.4,1.75,2.11,2.61.43.51.85,1,1.27,1.54a7.65,7.65,0,0,0,8.55,2.64c2.45-.68,4.41-1.3,6.16-1.95a7.57,7.57,0,0,0,5.2-6.69l0-.42c.16-1.7.33-3.46.36-5.22,0-.13,0-.22,0-.25a3.08,3.08,0,0,1,.39,0c2.44-.07,5-.16,7.63-.37h.18c.1,0,.15,0,.17,0a2.57,2.57,0,0,1,.11.45q.36,2.65.81,5.3A7.6,7.6,0,0,0,136,68.57a53.75,53.75,0,0,0,6.87,1.52A7.64,7.64,0,0,0,151,66.66l.7-1c.78-1.13,1.55-2.27,2.28-3.43a1.36,1.36,0,0,0,.12-.18l.16.08c2.57,1.4,4.89,2.62,7.12,3.71l.14.07a2.2,2.2,0,0,1-.08.23c-.61,1.53-1.17,3.09-1.74,4.64l-.18.49a7.43,7.43,0,0,0,1.66,8.18c1.5,1.55,3.15,3,4.74,4.37l.31.27a7.52,7.52,0,0,0,8.62,1.21c1.18-.55,2.35-1.12,3.52-1.7l1.53-.74c.19-.1.27-.11.17-.07,1.42,2.3,2.9,4.58,4.37,6.85a1.33,1.33,0,0,0,.13.19.82.82,0,0,1-.16.14c-1.28,1-2.64,2.08-4.28,3.49a7.53,7.53,0,0,0-2.53,8.32c.64,2.14,1.3,4.27,2,6.38a7.72,7.72,0,0,0,6.79,5.14l2,.15c1.17.1,2.34.2,3.51.23.17,0,.26,0,.29,0a1.57,1.57,0,0,1,0,.38c.09,2.58.23,5.16.37,7.74a1.83,1.83,0,0,0,0,.19l-.11,0c-1.19.18-2.38.41-3.57.63l-2.09.38A7.42,7.42,0,0,0,180.61,128.69Z"/><path class="cls-1" d="M54.26,95A4.3,4.3,0,0,0,58,93.9a3.8,3.8,0,0,0,.72-3.4,3.28,3.28,0,0,0-3.27-2.76c-1.12-.08-2.24-.11-3.37-.13l-1.57,0a24.92,24.92,0,0,0-22.6,28.5,24.77,24.77,0,0,0,21.58,21c.2,0,.39,0,.58,0A3.68,3.68,0,0,0,54,134c.27-2.21-1.17-3.88-3.66-4.27-7.67-1.2-12.6-5.45-14.63-12.65-1.95-6.88-.09-12.93,5.51-18C44.67,95.93,48.93,94.6,54.26,95Z"/><path class="cls-1" d="M59,157.15h0a.56.56,0,0,1-.27,0,1,1,0,0,1-.14-.31c-.33-1-.68-2-1-2.95l-.78-2.19a8.35,8.35,0,0,0-7.06-5.89l-2.86-.48c-1.05-.18-2.12-.36-3.18-.52a8.06,8.06,0,0,0-7.88,3c-1.23,1.48-2.45,3-3.62,4.49l-.16.19a1,1,0,0,1-.28-.14c-2.24-1.46-4.5-2.88-6.77-4.39.46-.89.88-1.8,1.31-2.71q.51-1.11,1-2.22a8.47,8.47,0,0,0-.74-9.29c-.72-1-1.43-2-2.14-3L23.2,129a8.33,8.33,0,0,0-8-3.66l-4.44.42-1.48.14L9,124.67c-.54-2.35-1-4.62-1.51-6.7,0-.06.09-.2.07-.19,1.14-.46,2.29-.87,3.45-1.28l2.39-.88a8,8,0,0,0,5.19-6.19c.51-2.53.9-4.86,1.2-7.15A8,8,0,0,0,16.86,95c-.78-.67-1.59-1.32-2.39-2s-1.57-1.26-2.31-1.9a.66.66,0,0,1-.09-.15c1.21-2,2.47-4,3.76-6l.63-1,1.07.49c1.36.64,2.71,1.26,4,1.92a8.38,8.38,0,0,0,9.17-.76c1.55-1.1,3.1-2.21,4.66-3.29a8.47,8.47,0,0,0,3.79-8.26l-.13-1.33c-.13-1.42-.27-2.85-.45-4.26,0-.09,0-.16,0-.19l.25-.07c2.61-.56,5.21-1.14,7.83-1.88a2.43,2.43,0,0,1,.13.31c.66,1.94,1.37,3.86,2.09,5.78a7.93,7.93,0,0,0,6.45,5.25c1,.19,2.06.36,3.1.53s2,.33,3.06.51a8.16,8.16,0,0,0,8.06-2.93c1.16-1.35,2.26-2.75,3.36-4.15l.34-.44a1.72,1.72,0,0,1,.19-.21.7.7,0,0,1,.25.06,3.57,3.57,0,0,0,4.57-2,3.79,3.79,0,0,0-1.73-4.8,6.77,6.77,0,0,0-8.28,1.48c-1.38,1.59-2.7,3.22-4,4.88a1.69,1.69,0,0,1-1.91.76c-1.83-.36-3.69-.65-5.54-.93a1.3,1.3,0,0,1-1.2-1c-.41-1.21-.86-2.42-1.3-3.63l-.83-2.26a6.48,6.48,0,0,0-7.24-4.47c-3.38.61-6.94,1.43-10.58,2.42a6.6,6.6,0,0,0-4.5,7.11c.17,2,.39,4,.64,6a1.5,1.5,0,0,1-.73,1.74c-1.38.89-2.86,1.92-4.64,3.25a1.36,1.36,0,0,1-1.68.12c-1.84-.9-3.68-1.79-5.55-2.63a6.78,6.78,0,0,0-8.8,2.61Q8,83.63,5.57,87.47a6.75,6.75,0,0,0,1.34,9c1.6,1.36,3.24,2.67,4.9,4a1.31,1.31,0,0,1,.59,1.46c-.35,1.93-.68,3.86-1,5.81a1.24,1.24,0,0,1-.91,1.14l-1.06.39c-1.39.51-2.78,1-4.18,1.5-4.37,1.51-6.09,4.68-5,9.16.37,1.48.7,3,1,4.44.29,1.29.58,2.57.9,3.85a6.52,6.52,0,0,0,7.05,5.11c2.13-.17,4.26-.41,6.38-.66a1.42,1.42,0,0,1,1.56.69q1.65,2.44,3.37,4.82a1.25,1.25,0,0,1,.12,1.47c-.93,1.92-1.85,3.86-2.72,5.81a6.59,6.59,0,0,0,2.31,8.41c2.84,1.9,5.66,3.68,8.37,5.29a6.82,6.82,0,0,0,8.73-1.66c1.33-1.62,2.66-3.23,3.95-4.88a1.18,1.18,0,0,1,1.35-.51c1.54.28,3.09.52,4.64.76l1,.16a1.53,1.53,0,0,1,1.4,1.17c.67,2,1.42,4.18,2.32,6.3a6.68,6.68,0,0,0,6.13,4.08,7.34,7.34,0,0,0,.81-.05,3.69,3.69,0,0,0,3.51-3.82A3.45,3.45,0,0,0,59,157.15Z"/></svg>