<?xml version="1.0" encoding="UTF-8" standalone="no"?>
<svg
   version="1.1"
   viewBox="0 0 1110 875"
   preserveAspectRatio="xMaxYMax meet"
   id="svg357"
   sodipodi:docname="three_cogs_colors_vs.svg"
   inkscape:version="1.1.1 (c3084ef, 2021-09-22)"
   xmlns:inkscape="http://www.inkscape.org/namespaces/inkscape"
   xmlns:sodipodi="http://sodipodi.sourceforge.net/DTD/sodipodi-0.dtd"
   xmlns:xlink="http://www.w3.org/1999/xlink"
   xmlns="http://www.w3.org/2000/svg"
   xmlns:svg="http://www.w3.org/2000/svg">
  <sodipodi:namedview
     id="namedview359"
     pagecolor="#ffffff"
     bordercolor="#666666"
     borderopacity="1.0"
     inkscape:pageshadow="2"
     inkscape:pageopacity="0.0"
     inkscape:pagecheckerboard="0"
     showgrid="false"
     inkscape:zoom="0.55045045"
     inkscape:cx="555"
     inkscape:cy="437.82324"
     inkscape:window-width="1920"
     inkscape:window-height="1080"
     inkscape:window-x="0"
     inkscape:window-y="0"
     inkscape:window-maximized="0"
     inkscape:current-layer="svg357" />
  <defs
     id="defs349">
    <path
       id="a"
       fill="#4EC9B0"
       d="M 26 -248L-26 -248C-42 -223 -43 -197 -44 -174L-94 -154C-109 -175 -125 -184 -160 -197L-197 -160C-184 -125 -175 -109 -154 -94L-174 -44C-197 -43 -223 -42 -248 -26L-248 26C-223 42 -197 43 -174 44L-154 94C-175 109 -184 125 -197 160L-160 197C-125 184 -109 175 -94 154L-44 174C-43 197 -42 223 -26 248L26 248C42 223 43 197 44 174L94 154C109 175 125 184 160 197L197 160C184 125 175 109 154 94L174 44C197 43 223 42 248 26L248 -26C223 -42 197 -43 174 -44L154 -94C175 -109 184 -125 197 -160L160 -197C125 -184 109 -175 94 -154L44 -174C43 -197 42 -223 26 -248 zM0 -80C44 -80 80 -44 80 0C80 44 44 80 0 80C-44 80 -80 44 -80 0C-80 -44 -44 -80 0 -80z">
      <animateTransform
         attributeName="transform"
         dur="2s"
         type="rotate"
         from="0 0 0"
         to="360 0 0"
         repeatCount="indefinite" />
    </path>
    <path
       id="b"
       fill="#9CDCFE"
       d="M 26 -248L-26 -248C-42 -223 -43 -197 -44 -174L-94 -154C-109 -175 -125 -184 -160 -197L-197 -160C-184 -125 -175 -109 -154 -94L-174 -44C-197 -43 -223 -42 -248 -26L-248 26C-223 42 -197 43 -174 44L-154 94C-175 109 -184 125 -197 160L-160 197C-125 184 -109 175 -94 154L-44 174C-43 197 -42 223 -26 248L26 248C42 223 43 197 44 174L94 154C109 175 125 184 160 197L197 160C184 125 175 109 154 94L174 44C197 43 223 42 248 26L248 -26C223 -42 197 -43 174 -44L154 -94C175 -109 184 -125 197 -160L160 -197C125 -184 109 -175 94 -154L44 -174C43 -197 42 -223 26 -248 zM0 -80C44 -80 80 -44 80 0C80 44 44 80 0 80C-44 80 -80 44 -80 0C-80 -44 -44 -80 0 -80z">
      <animateTransform
         attributeName="transform"
         dur="2s"
         type="rotate"
         from="360 0 0"
         to="0 0 0"
         repeatCount="indefinite" />
    </path>
    <path
       id="c"
       fill="#CE9178"
       d="M 26 -248L-26 -248C-42 -223 -43 -197 -44 -174L-94 -154C-109 -175 -125 -184 -160 -197L-197 -160C-184 -125 -175 -109 -154 -94L-174 -44C-197 -43 -223 -42 -248 -26L-248 26C-223 42 -197 43 -174 44L-154 94C-175 109 -184 125 -197 160L-160 197C-125 184 -109 175 -94 154L-44 174C-43 197 -42 223 -26 248L26 248C42 223 43 197 44 174L94 154C109 175 125 184 160 197L197 160C184 125 175 109 154 94L174 44C197 43 223 42 248 26L248 -26C223 -42 197 -43 174 -44L154 -94C175 -109 184 -125 197 -160L160 -197C125 -184 109 -175 94 -154L44 -174C43 -197 42 -223 26 -248 zM0 -80C44 -80 80 -44 80 0C80 44 44 80 0 80C-44 80 -80 44 -80 0C-80 -44 -44 -80 0 -80z">
      <animateTransform
         attributeName="transform"
         dur="2s"
         type="rotate"
         from="0 0 0"
         to="360 0 0"
         repeatCount="indefinite" />
    </path>
  </defs>
  <use
     xlink:href="#a"
     transform="translate(250 250)"
     id="use351" />
  <use
     xlink:href="#b"
     transform="translate(555 555)rotate(22.5)"
     id="use353" />
  <use
     xlink:href="#c"
     transform="translate(860 250)"
     id="use355" />
</svg>
